<mxfile host="Electron" agent="Mozilla/5.0 (Windows NT 10.0; Win64; x64) AppleWebKit/537.36 (KHTML, like Gecko) draw.io/24.7.17 Chrome/128.0.6613.36 Electron/32.0.1 Safari/537.36" version="24.7.17">
  <diagram name="Сторінка-1" id="oPL0w_b0mFHAZMVK7twz">
    <mxGraphModel dx="1216" dy="866" grid="1" gridSize="10" guides="1" tooltips="1" connect="1" arrows="1" fold="1" page="1" pageScale="1" pageWidth="4681" pageHeight="3300" math="0" shadow="0">
      <root>
        <mxCell id="0" />
        <mxCell id="1" parent="0" />
        <mxCell id="bZMVQMll3qHNsxTQ0Wbx-16" style="edgeStyle=orthogonalEdgeStyle;rounded=0;orthogonalLoop=1;jettySize=auto;html=1;exitX=0.5;exitY=1;exitDx=0;exitDy=0;entryX=0.5;entryY=0;entryDx=0;entryDy=0;" edge="1" parent="1" source="bZMVQMll3qHNsxTQ0Wbx-1" target="bZMVQMll3qHNsxTQ0Wbx-47">
          <mxGeometry relative="1" as="geometry">
            <mxPoint x="640" y="540" as="targetPoint" />
          </mxGeometry>
        </mxCell>
        <mxCell id="bZMVQMll3qHNsxTQ0Wbx-5" style="edgeStyle=orthogonalEdgeStyle;rounded=0;orthogonalLoop=1;jettySize=auto;html=1;exitX=0.5;exitY=1;exitDx=0;exitDy=0;entryX=0.25;entryY=0;entryDx=0;entryDy=0;" edge="1" parent="1" source="bZMVQMll3qHNsxTQ0Wbx-2" target="bZMVQMll3qHNsxTQ0Wbx-1">
          <mxGeometry relative="1" as="geometry">
            <Array as="points">
              <mxPoint x="500" y="390" />
              <mxPoint x="600" y="390" />
            </Array>
          </mxGeometry>
        </mxCell>
        <mxCell id="bZMVQMll3qHNsxTQ0Wbx-2" value="Password" style="rounded=0;whiteSpace=wrap;html=1;fillColor=#a20025;fontColor=#ffffff;strokeColor=#6F0000;" vertex="1" parent="1">
          <mxGeometry x="460" y="340" width="80" height="40" as="geometry" />
        </mxCell>
        <mxCell id="bZMVQMll3qHNsxTQ0Wbx-6" style="edgeStyle=orthogonalEdgeStyle;rounded=0;orthogonalLoop=1;jettySize=auto;html=1;exitX=0.5;exitY=1;exitDx=0;exitDy=0;entryX=0.5;entryY=0;entryDx=0;entryDy=0;" edge="1" parent="1" source="bZMVQMll3qHNsxTQ0Wbx-3" target="bZMVQMll3qHNsxTQ0Wbx-1">
          <mxGeometry relative="1" as="geometry" />
        </mxCell>
        <mxCell id="bZMVQMll3qHNsxTQ0Wbx-3" value="Salt" style="rounded=0;whiteSpace=wrap;html=1;fillColor=#a20025;fontColor=#ffffff;strokeColor=#6F0000;" vertex="1" parent="1">
          <mxGeometry x="600" y="340" width="80" height="40" as="geometry" />
        </mxCell>
        <mxCell id="bZMVQMll3qHNsxTQ0Wbx-7" style="edgeStyle=orthogonalEdgeStyle;rounded=0;orthogonalLoop=1;jettySize=auto;html=1;exitX=0.5;exitY=1;exitDx=0;exitDy=0;entryX=0.75;entryY=0;entryDx=0;entryDy=0;" edge="1" parent="1" source="bZMVQMll3qHNsxTQ0Wbx-4" target="bZMVQMll3qHNsxTQ0Wbx-1">
          <mxGeometry relative="1" as="geometry">
            <Array as="points">
              <mxPoint x="780" y="390" />
              <mxPoint x="680" y="390" />
            </Array>
          </mxGeometry>
        </mxCell>
        <mxCell id="bZMVQMll3qHNsxTQ0Wbx-4" value="Key length" style="rounded=0;whiteSpace=wrap;html=1;fillColor=#60a917;fontColor=#ffffff;strokeColor=#2D7600;" vertex="1" parent="1">
          <mxGeometry x="740" y="340" width="80" height="40" as="geometry" />
        </mxCell>
        <mxCell id="bZMVQMll3qHNsxTQ0Wbx-10" style="edgeStyle=orthogonalEdgeStyle;rounded=0;orthogonalLoop=1;jettySize=auto;html=1;exitX=0.5;exitY=1;exitDx=0;exitDy=0;entryX=0.5;entryY=0;entryDx=0;entryDy=0;" edge="1" parent="1" source="bZMVQMll3qHNsxTQ0Wbx-8" target="bZMVQMll3qHNsxTQ0Wbx-3">
          <mxGeometry relative="1" as="geometry" />
        </mxCell>
        <mxCell id="bZMVQMll3qHNsxTQ0Wbx-8" value="Generate" style="shape=parallelogram;perimeter=parallelogramPerimeter;whiteSpace=wrap;html=1;fixedSize=1;fillColor=#6a00ff;fontColor=#ffffff;strokeColor=#3700CC;" vertex="1" parent="1">
          <mxGeometry x="580" y="280" width="120" height="40" as="geometry" />
        </mxCell>
        <mxCell id="bZMVQMll3qHNsxTQ0Wbx-11" style="edgeStyle=orthogonalEdgeStyle;rounded=0;orthogonalLoop=1;jettySize=auto;html=1;exitX=0.5;exitY=1;exitDx=0;exitDy=0;entryX=0.5;entryY=0;entryDx=0;entryDy=0;" edge="1" parent="1" target="bZMVQMll3qHNsxTQ0Wbx-4">
          <mxGeometry relative="1" as="geometry">
            <mxPoint x="780" y="280" as="sourcePoint" />
          </mxGeometry>
        </mxCell>
        <mxCell id="bZMVQMll3qHNsxTQ0Wbx-13" style="edgeStyle=orthogonalEdgeStyle;rounded=0;orthogonalLoop=1;jettySize=auto;html=1;exitX=0.5;exitY=1;exitDx=0;exitDy=0;entryX=0.5;entryY=0;entryDx=0;entryDy=0;" edge="1" parent="1" source="bZMVQMll3qHNsxTQ0Wbx-12" target="bZMVQMll3qHNsxTQ0Wbx-2">
          <mxGeometry relative="1" as="geometry" />
        </mxCell>
        <mxCell id="bZMVQMll3qHNsxTQ0Wbx-12" value="Get from&lt;div&gt;user&lt;/div&gt;" style="shape=parallelogram;perimeter=parallelogramPerimeter;whiteSpace=wrap;html=1;fixedSize=1;fillColor=#1ba1e2;fontColor=#ffffff;strokeColor=#006EAF;" vertex="1" parent="1">
          <mxGeometry x="440" y="280" width="120" height="40" as="geometry" />
        </mxCell>
        <mxCell id="bZMVQMll3qHNsxTQ0Wbx-14" value="Static&lt;div&gt;32 bytes&lt;/div&gt;" style="rounded=0;whiteSpace=wrap;html=1;fillColor=#008a00;fontColor=#ffffff;strokeColor=#005700;" vertex="1" parent="1">
          <mxGeometry x="740" y="280" width="80" height="40" as="geometry" />
        </mxCell>
        <mxCell id="bZMVQMll3qHNsxTQ0Wbx-28" style="edgeStyle=orthogonalEdgeStyle;rounded=0;orthogonalLoop=1;jettySize=auto;html=1;entryX=0.5;entryY=0;entryDx=0;entryDy=0;exitX=0.5;exitY=1;exitDx=0;exitDy=0;" edge="1" parent="1" source="bZMVQMll3qHNsxTQ0Wbx-47" target="bZMVQMll3qHNsxTQ0Wbx-26">
          <mxGeometry relative="1" as="geometry">
            <mxPoint x="630" y="630" as="sourcePoint" />
          </mxGeometry>
        </mxCell>
        <mxCell id="bZMVQMll3qHNsxTQ0Wbx-18" style="edgeStyle=orthogonalEdgeStyle;rounded=0;orthogonalLoop=1;jettySize=auto;html=1;exitX=0.5;exitY=1;exitDx=0;exitDy=0;entryX=0.25;entryY=0;entryDx=0;entryDy=0;" edge="1" parent="1" source="bZMVQMll3qHNsxTQ0Wbx-17" target="bZMVQMll3qHNsxTQ0Wbx-47">
          <mxGeometry relative="1" as="geometry">
            <mxPoint x="600" y="540" as="targetPoint" />
          </mxGeometry>
        </mxCell>
        <mxCell id="bZMVQMll3qHNsxTQ0Wbx-17" value="Algorithm" style="rounded=0;whiteSpace=wrap;html=1;fillColor=#60a917;fontColor=#ffffff;strokeColor=#2D7600;" vertex="1" parent="1">
          <mxGeometry x="460" y="460" width="80" height="40" as="geometry" />
        </mxCell>
        <mxCell id="bZMVQMll3qHNsxTQ0Wbx-20" style="edgeStyle=orthogonalEdgeStyle;rounded=0;orthogonalLoop=1;jettySize=auto;html=1;exitX=0.5;exitY=1;exitDx=0;exitDy=0;entryX=0.5;entryY=0;entryDx=0;entryDy=0;" edge="1" parent="1" source="bZMVQMll3qHNsxTQ0Wbx-19" target="bZMVQMll3qHNsxTQ0Wbx-17">
          <mxGeometry relative="1" as="geometry" />
        </mxCell>
        <mxCell id="bZMVQMll3qHNsxTQ0Wbx-19" value="Static&lt;div&gt;32 bytes&lt;/div&gt;" style="rounded=0;whiteSpace=wrap;html=1;fillColor=#008a00;fontColor=#ffffff;strokeColor=#005700;" vertex="1" parent="1">
          <mxGeometry x="460" y="400" width="80" height="40" as="geometry" />
        </mxCell>
        <mxCell id="bZMVQMll3qHNsxTQ0Wbx-24" style="edgeStyle=orthogonalEdgeStyle;rounded=0;orthogonalLoop=1;jettySize=auto;html=1;exitX=0.5;exitY=1;exitDx=0;exitDy=0;entryX=0.75;entryY=0;entryDx=0;entryDy=0;" edge="1" parent="1" source="bZMVQMll3qHNsxTQ0Wbx-21" target="bZMVQMll3qHNsxTQ0Wbx-47">
          <mxGeometry relative="1" as="geometry">
            <mxPoint x="680" y="540" as="targetPoint" />
          </mxGeometry>
        </mxCell>
        <mxCell id="bZMVQMll3qHNsxTQ0Wbx-21" value="IV" style="rounded=0;whiteSpace=wrap;html=1;fillColor=#a20025;fontColor=#ffffff;strokeColor=#6F0000;" vertex="1" parent="1">
          <mxGeometry x="740" y="460" width="80" height="40" as="geometry" />
        </mxCell>
        <mxCell id="bZMVQMll3qHNsxTQ0Wbx-23" style="edgeStyle=orthogonalEdgeStyle;rounded=0;orthogonalLoop=1;jettySize=auto;html=1;exitX=0.5;exitY=1;exitDx=0;exitDy=0;entryX=0.5;entryY=0;entryDx=0;entryDy=0;" edge="1" parent="1" source="bZMVQMll3qHNsxTQ0Wbx-22" target="bZMVQMll3qHNsxTQ0Wbx-21">
          <mxGeometry relative="1" as="geometry" />
        </mxCell>
        <mxCell id="bZMVQMll3qHNsxTQ0Wbx-22" value="Generate" style="shape=parallelogram;perimeter=parallelogramPerimeter;whiteSpace=wrap;html=1;fixedSize=1;fillColor=#6a00ff;fontColor=#ffffff;strokeColor=#3700CC;" vertex="1" parent="1">
          <mxGeometry x="720" y="400" width="120" height="40" as="geometry" />
        </mxCell>
        <mxCell id="bZMVQMll3qHNsxTQ0Wbx-27" style="edgeStyle=orthogonalEdgeStyle;rounded=0;orthogonalLoop=1;jettySize=auto;html=1;exitX=1;exitY=0.5;exitDx=0;exitDy=0;entryX=0;entryY=0.5;entryDx=0;entryDy=0;" edge="1" parent="1" source="bZMVQMll3qHNsxTQ0Wbx-25" target="bZMVQMll3qHNsxTQ0Wbx-26">
          <mxGeometry relative="1" as="geometry" />
        </mxCell>
        <mxCell id="bZMVQMll3qHNsxTQ0Wbx-25" value="File content" style="rounded=0;whiteSpace=wrap;html=1;fillColor=#60a917;fontColor=#ffffff;strokeColor=#2D7600;" vertex="1" parent="1">
          <mxGeometry x="380" y="620" width="160" height="80" as="geometry" />
        </mxCell>
        <mxCell id="bZMVQMll3qHNsxTQ0Wbx-41" style="edgeStyle=orthogonalEdgeStyle;rounded=0;orthogonalLoop=1;jettySize=auto;html=1;exitX=0.5;exitY=1;exitDx=0;exitDy=0;entryX=0.5;entryY=0;entryDx=0;entryDy=0;" edge="1" parent="1" source="bZMVQMll3qHNsxTQ0Wbx-26" target="bZMVQMll3qHNsxTQ0Wbx-36">
          <mxGeometry relative="1" as="geometry" />
        </mxCell>
        <mxCell id="bZMVQMll3qHNsxTQ0Wbx-26" value="Encrypt&amp;nbsp;&lt;div&gt;with AES Cipher&lt;/div&gt;" style="shape=parallelogram;perimeter=parallelogramPerimeter;whiteSpace=wrap;html=1;fixedSize=1;fillColor=#6a00ff;fontColor=#ffffff;strokeColor=#3700CC;" vertex="1" parent="1">
          <mxGeometry x="580" y="640" width="120" height="40" as="geometry" />
        </mxCell>
        <mxCell id="bZMVQMll3qHNsxTQ0Wbx-32" style="edgeStyle=orthogonalEdgeStyle;rounded=0;orthogonalLoop=1;jettySize=auto;html=1;exitX=0;exitY=0;exitDx=80;exitDy=70;exitPerimeter=0;entryX=0;entryY=0.5;entryDx=0;entryDy=0;" edge="1" parent="1">
          <mxGeometry relative="1" as="geometry">
            <mxPoint x="321" y="660" as="sourcePoint" />
            <mxPoint x="381" y="660" as="targetPoint" />
          </mxGeometry>
        </mxCell>
        <mxCell id="bZMVQMll3qHNsxTQ0Wbx-35" value="&amp;nbsp;Read&amp;nbsp;" style="edgeLabel;html=1;align=center;verticalAlign=middle;resizable=0;points=[];" vertex="1" connectable="0" parent="bZMVQMll3qHNsxTQ0Wbx-32">
          <mxGeometry x="-0.1725" y="-1" relative="1" as="geometry">
            <mxPoint x="4" y="-1" as="offset" />
          </mxGeometry>
        </mxCell>
        <mxCell id="bZMVQMll3qHNsxTQ0Wbx-264" style="edgeStyle=orthogonalEdgeStyle;rounded=0;orthogonalLoop=1;jettySize=auto;html=1;exitX=0.5;exitY=1;exitDx=0;exitDy=0;exitPerimeter=0;entryX=0;entryY=0.5;entryDx=0;entryDy=0;" edge="1" parent="1" source="bZMVQMll3qHNsxTQ0Wbx-30" target="bZMVQMll3qHNsxTQ0Wbx-261">
          <mxGeometry relative="1" as="geometry" />
        </mxCell>
        <mxCell id="bZMVQMll3qHNsxTQ0Wbx-30" value="File" style="shape=note;whiteSpace=wrap;html=1;backgroundOutline=1;darkOpacity=0.05;fillColor=#60a917;fontColor=#ffffff;strokeColor=#2D7600;" vertex="1" parent="1">
          <mxGeometry x="240" y="590" width="80" height="110" as="geometry" />
        </mxCell>
        <mxCell id="bZMVQMll3qHNsxTQ0Wbx-44" value="" style="group" vertex="1" connectable="0" parent="1">
          <mxGeometry x="560" y="700" width="160" height="80" as="geometry" />
        </mxCell>
        <mxCell id="bZMVQMll3qHNsxTQ0Wbx-36" value="Encrypted file content&lt;div&gt;with AES Cipher&lt;/div&gt;" style="rounded=0;whiteSpace=wrap;html=1;fillColor=#a20025;fontColor=#ffffff;strokeColor=#6F0000;" vertex="1" parent="bZMVQMll3qHNsxTQ0Wbx-44">
          <mxGeometry width="160" height="80" as="geometry" />
        </mxCell>
        <mxCell id="bZMVQMll3qHNsxTQ0Wbx-40" value="" style="html=1;verticalLabelPosition=bottom;align=center;labelBackgroundColor=#ffffff;verticalAlign=top;strokeWidth=2;strokeColor=#0080F0;shadow=0;dashed=0;shape=mxgraph.ios7.icons.locked;" vertex="1" parent="bZMVQMll3qHNsxTQ0Wbx-44">
          <mxGeometry x="4" y="3" width="15" height="20" as="geometry" />
        </mxCell>
        <mxCell id="bZMVQMll3qHNsxTQ0Wbx-46" value="" style="group" vertex="1" connectable="0" parent="1">
          <mxGeometry x="560" y="420" width="160" height="80" as="geometry" />
        </mxCell>
        <mxCell id="bZMVQMll3qHNsxTQ0Wbx-1" value="&lt;div&gt;&lt;span style=&quot;background-color: initial;&quot;&gt;AES Key&lt;/span&gt;&lt;br&gt;&lt;/div&gt;" style="rounded=0;whiteSpace=wrap;html=1;fillColor=#a20025;fontColor=#ffffff;strokeColor=#6F0000;" vertex="1" parent="bZMVQMll3qHNsxTQ0Wbx-46">
          <mxGeometry width="160" height="80" as="geometry" />
        </mxCell>
        <mxCell id="bZMVQMll3qHNsxTQ0Wbx-45" value="" style="image;sketch=0;aspect=fixed;html=1;points=[];align=center;fontSize=12;image=img/lib/mscae/Key.svg;" vertex="1" parent="bZMVQMll3qHNsxTQ0Wbx-46">
          <mxGeometry x="5" y="5" width="18.6" height="30" as="geometry" />
        </mxCell>
        <mxCell id="bZMVQMll3qHNsxTQ0Wbx-47" value="AES&amp;nbsp;&lt;span style=&quot;background-color: initial;&quot;&gt;Cipher&lt;/span&gt;" style="shape=process;whiteSpace=wrap;html=1;backgroundOutline=1;fillColor=#d80073;fontColor=#ffffff;strokeColor=#A50040;" vertex="1" parent="1">
          <mxGeometry x="560" y="540" width="160" height="80" as="geometry" />
        </mxCell>
        <mxCell id="bZMVQMll3qHNsxTQ0Wbx-48" value="" style="group;fillColor=#60a917;fontColor=#ffffff;strokeColor=#2D7600;" vertex="1" connectable="0" parent="1">
          <mxGeometry x="1270" y="470" width="160" height="80" as="geometry" />
        </mxCell>
        <mxCell id="bZMVQMll3qHNsxTQ0Wbx-49" value="&lt;div&gt;&lt;span style=&quot;background-color: initial;&quot;&gt;RSA Public key&lt;/span&gt;&lt;/div&gt;" style="rounded=0;whiteSpace=wrap;html=1;fillColor=#60a917;fontColor=#ffffff;strokeColor=#2D7600;" vertex="1" parent="bZMVQMll3qHNsxTQ0Wbx-48">
          <mxGeometry width="160" height="80" as="geometry" />
        </mxCell>
        <mxCell id="bZMVQMll3qHNsxTQ0Wbx-50" value="" style="image;sketch=0;aspect=fixed;html=1;points=[];align=center;fontSize=12;image=img/lib/mscae/Key.svg;" vertex="1" parent="bZMVQMll3qHNsxTQ0Wbx-48">
          <mxGeometry x="5" y="5" width="18.6" height="30" as="geometry" />
        </mxCell>
        <mxCell id="bZMVQMll3qHNsxTQ0Wbx-60" style="edgeStyle=orthogonalEdgeStyle;rounded=0;orthogonalLoop=1;jettySize=auto;html=1;exitX=0.5;exitY=1;exitDx=0;exitDy=0;" edge="1" parent="1" source="bZMVQMll3qHNsxTQ0Wbx-54" target="bZMVQMll3qHNsxTQ0Wbx-58">
          <mxGeometry relative="1" as="geometry" />
        </mxCell>
        <mxCell id="bZMVQMll3qHNsxTQ0Wbx-54" value="Encrypt&amp;nbsp;&lt;div&gt;with RSA&lt;/div&gt;" style="shape=parallelogram;perimeter=parallelogramPerimeter;whiteSpace=wrap;html=1;fixedSize=1;fillColor=#6a00ff;fontColor=#ffffff;strokeColor=#3700CC;" vertex="1" parent="1">
          <mxGeometry x="1290" y="570" width="120" height="40" as="geometry" />
        </mxCell>
        <mxCell id="bZMVQMll3qHNsxTQ0Wbx-55" style="edgeStyle=orthogonalEdgeStyle;rounded=0;orthogonalLoop=1;jettySize=auto;html=1;exitX=0.5;exitY=1;exitDx=0;exitDy=0;entryX=0.5;entryY=0;entryDx=0;entryDy=0;" edge="1" parent="1" source="bZMVQMll3qHNsxTQ0Wbx-49" target="bZMVQMll3qHNsxTQ0Wbx-54">
          <mxGeometry relative="1" as="geometry" />
        </mxCell>
        <mxCell id="bZMVQMll3qHNsxTQ0Wbx-57" value="" style="group" vertex="1" connectable="0" parent="1">
          <mxGeometry x="1270" y="630" width="160" height="80" as="geometry" />
        </mxCell>
        <mxCell id="bZMVQMll3qHNsxTQ0Wbx-58" value="Encrypted IV and Salt&lt;div&gt;with RSA public key&lt;/div&gt;" style="rounded=0;whiteSpace=wrap;html=1;fillColor=#a20025;fontColor=#ffffff;strokeColor=#6F0000;" vertex="1" parent="bZMVQMll3qHNsxTQ0Wbx-57">
          <mxGeometry width="160" height="80" as="geometry" />
        </mxCell>
        <mxCell id="bZMVQMll3qHNsxTQ0Wbx-59" value="" style="html=1;verticalLabelPosition=bottom;align=center;labelBackgroundColor=#ffffff;verticalAlign=top;strokeWidth=2;strokeColor=#0080F0;shadow=0;dashed=0;shape=mxgraph.ios7.icons.locked;" vertex="1" parent="bZMVQMll3qHNsxTQ0Wbx-57">
          <mxGeometry x="4" y="3" width="15" height="20" as="geometry" />
        </mxCell>
        <mxCell id="bZMVQMll3qHNsxTQ0Wbx-72" style="edgeStyle=orthogonalEdgeStyle;rounded=0;orthogonalLoop=1;jettySize=auto;html=1;exitX=1;exitY=0.75;exitDx=0;exitDy=0;entryX=0.5;entryY=0;entryDx=0;entryDy=0;" edge="1" parent="1" source="bZMVQMll3qHNsxTQ0Wbx-3" target="bZMVQMll3qHNsxTQ0Wbx-67">
          <mxGeometry relative="1" as="geometry" />
        </mxCell>
        <mxCell id="bZMVQMll3qHNsxTQ0Wbx-78" value="Hex (32 b)" style="edgeLabel;html=1;align=center;verticalAlign=middle;resizable=0;points=[];" vertex="1" connectable="0" parent="bZMVQMll3qHNsxTQ0Wbx-72">
          <mxGeometry x="-0.1157" y="1" relative="1" as="geometry">
            <mxPoint x="58" y="161" as="offset" />
          </mxGeometry>
        </mxCell>
        <mxCell id="bZMVQMll3qHNsxTQ0Wbx-71" style="edgeStyle=orthogonalEdgeStyle;rounded=0;orthogonalLoop=1;jettySize=auto;html=1;exitX=1;exitY=0.75;exitDx=0;exitDy=0;entryX=0.5;entryY=0;entryDx=0;entryDy=0;" edge="1" parent="1" source="bZMVQMll3qHNsxTQ0Wbx-21" target="bZMVQMll3qHNsxTQ0Wbx-66">
          <mxGeometry relative="1" as="geometry" />
        </mxCell>
        <mxCell id="bZMVQMll3qHNsxTQ0Wbx-79" value="&amp;nbsp;Hex (16 b)" style="edgeLabel;html=1;align=center;verticalAlign=middle;resizable=0;points=[];" vertex="1" connectable="0" parent="bZMVQMll3qHNsxTQ0Wbx-71">
          <mxGeometry x="-0.3373" y="1" relative="1" as="geometry">
            <mxPoint x="-1" y="30" as="offset" />
          </mxGeometry>
        </mxCell>
        <mxCell id="bZMVQMll3qHNsxTQ0Wbx-74" style="edgeStyle=orthogonalEdgeStyle;rounded=0;orthogonalLoop=1;jettySize=auto;html=1;exitX=1;exitY=0.5;exitDx=0;exitDy=0;entryX=0;entryY=0.5;entryDx=0;entryDy=0;" edge="1" parent="1" target="bZMVQMll3qHNsxTQ0Wbx-54">
          <mxGeometry relative="1" as="geometry">
            <mxPoint x="1169.9999999999995" y="590.0000000000002" as="sourcePoint" />
          </mxGeometry>
        </mxCell>
        <mxCell id="bZMVQMll3qHNsxTQ0Wbx-99" value="" style="group" vertex="1" connectable="0" parent="1">
          <mxGeometry x="1300" y="730" width="360" height="120" as="geometry" />
        </mxCell>
        <mxCell id="bZMVQMll3qHNsxTQ0Wbx-90" value="Concatenated ecrypted file content and key data&lt;div&gt;&lt;br&gt;&lt;/div&gt;&lt;div&gt;&lt;br&gt;&lt;/div&gt;&lt;div&gt;&lt;br&gt;&lt;/div&gt;&lt;div&gt;&lt;br&gt;&lt;/div&gt;&lt;div&gt;&lt;br&gt;&lt;/div&gt;&lt;div&gt;&lt;br&gt;&lt;/div&gt;" style="rounded=0;whiteSpace=wrap;html=1;fillColor=#a20025;fontColor=#ffffff;strokeColor=#6F0000;" vertex="1" parent="bZMVQMll3qHNsxTQ0Wbx-99">
          <mxGeometry width="360" height="120" as="geometry" />
        </mxCell>
        <mxCell id="bZMVQMll3qHNsxTQ0Wbx-92" value="" style="html=1;verticalLabelPosition=bottom;align=center;labelBackgroundColor=#ffffff;verticalAlign=top;strokeWidth=2;strokeColor=#0080F0;shadow=0;dashed=0;shape=mxgraph.ios7.icons.locked;" vertex="1" parent="bZMVQMll3qHNsxTQ0Wbx-99">
          <mxGeometry x="7" y="4" width="15" height="20" as="geometry" />
        </mxCell>
        <mxCell id="bZMVQMll3qHNsxTQ0Wbx-93" value="" style="group" vertex="1" connectable="0" parent="bZMVQMll3qHNsxTQ0Wbx-99">
          <mxGeometry x="190" y="30" width="160" height="80" as="geometry" />
        </mxCell>
        <mxCell id="bZMVQMll3qHNsxTQ0Wbx-94" value="Encrypted file content&lt;div&gt;with AES Cipher&lt;/div&gt;" style="rounded=0;whiteSpace=wrap;html=1;fillColor=#a20025;fontColor=#ffffff;strokeColor=#6F0000;" vertex="1" parent="bZMVQMll3qHNsxTQ0Wbx-93">
          <mxGeometry width="160" height="80" as="geometry" />
        </mxCell>
        <mxCell id="bZMVQMll3qHNsxTQ0Wbx-95" value="" style="html=1;verticalLabelPosition=bottom;align=center;labelBackgroundColor=#ffffff;verticalAlign=top;strokeWidth=2;strokeColor=#0080F0;shadow=0;dashed=0;shape=mxgraph.ios7.icons.locked;" vertex="1" parent="bZMVQMll3qHNsxTQ0Wbx-93">
          <mxGeometry x="4" y="3" width="15" height="20" as="geometry" />
        </mxCell>
        <mxCell id="bZMVQMll3qHNsxTQ0Wbx-96" value="" style="group" vertex="1" connectable="0" parent="bZMVQMll3qHNsxTQ0Wbx-99">
          <mxGeometry x="10" y="30" width="160" height="80" as="geometry" />
        </mxCell>
        <mxCell id="bZMVQMll3qHNsxTQ0Wbx-97" value="Encrypted IV and Salt&lt;div&gt;with RSA public key&lt;/div&gt;" style="rounded=0;whiteSpace=wrap;html=1;fillColor=#a20025;fontColor=#ffffff;strokeColor=#6F0000;" vertex="1" parent="bZMVQMll3qHNsxTQ0Wbx-96">
          <mxGeometry width="160" height="80" as="geometry" />
        </mxCell>
        <mxCell id="bZMVQMll3qHNsxTQ0Wbx-98" value="" style="html=1;verticalLabelPosition=bottom;align=center;labelBackgroundColor=#ffffff;verticalAlign=top;strokeWidth=2;strokeColor=#0080F0;shadow=0;dashed=0;shape=mxgraph.ios7.icons.locked;" vertex="1" parent="bZMVQMll3qHNsxTQ0Wbx-96">
          <mxGeometry x="4" y="3" width="15" height="20" as="geometry" />
        </mxCell>
        <mxCell id="bZMVQMll3qHNsxTQ0Wbx-100" style="edgeStyle=orthogonalEdgeStyle;rounded=0;orthogonalLoop=1;jettySize=auto;html=1;exitX=1;exitY=0.25;exitDx=0;exitDy=0;entryX=0.75;entryY=0;entryDx=0;entryDy=0;" edge="1" parent="1" source="bZMVQMll3qHNsxTQ0Wbx-36" target="bZMVQMll3qHNsxTQ0Wbx-94">
          <mxGeometry relative="1" as="geometry" />
        </mxCell>
        <mxCell id="bZMVQMll3qHNsxTQ0Wbx-101" style="edgeStyle=orthogonalEdgeStyle;rounded=0;orthogonalLoop=1;jettySize=auto;html=1;exitX=0.5;exitY=1;exitDx=0;exitDy=0;entryX=0.25;entryY=0;entryDx=0;entryDy=0;" edge="1" parent="1" source="bZMVQMll3qHNsxTQ0Wbx-58" target="bZMVQMll3qHNsxTQ0Wbx-97">
          <mxGeometry relative="1" as="geometry" />
        </mxCell>
        <mxCell id="bZMVQMll3qHNsxTQ0Wbx-104" style="edgeStyle=orthogonalEdgeStyle;rounded=0;orthogonalLoop=1;jettySize=auto;html=1;exitX=0.5;exitY=1;exitDx=0;exitDy=0;entryX=0.5;entryY=0;entryDx=0;entryDy=0;entryPerimeter=0;" edge="1" parent="1" source="bZMVQMll3qHNsxTQ0Wbx-90" target="bZMVQMll3qHNsxTQ0Wbx-102">
          <mxGeometry relative="1" as="geometry" />
        </mxCell>
        <mxCell id="bZMVQMll3qHNsxTQ0Wbx-105" value="Write" style="edgeLabel;html=1;align=center;verticalAlign=middle;resizable=0;points=[];" vertex="1" connectable="0" parent="bZMVQMll3qHNsxTQ0Wbx-104">
          <mxGeometry x="-0.2728" y="1" relative="1" as="geometry">
            <mxPoint x="-1" y="2" as="offset" />
          </mxGeometry>
        </mxCell>
        <mxCell id="bZMVQMll3qHNsxTQ0Wbx-106" value="" style="group" vertex="1" connectable="0" parent="1">
          <mxGeometry x="1440" y="900" width="80" height="110" as="geometry" />
        </mxCell>
        <mxCell id="bZMVQMll3qHNsxTQ0Wbx-102" value="Encrypted&lt;div&gt;file&lt;/div&gt;" style="shape=note;whiteSpace=wrap;html=1;backgroundOutline=1;darkOpacity=0.05;fillColor=#a20025;fontColor=#ffffff;strokeColor=#6F0000;" vertex="1" parent="bZMVQMll3qHNsxTQ0Wbx-106">
          <mxGeometry width="80" height="110" as="geometry" />
        </mxCell>
        <mxCell id="bZMVQMll3qHNsxTQ0Wbx-103" value="" style="html=1;verticalLabelPosition=bottom;align=center;labelBackgroundColor=#ffffff;verticalAlign=top;strokeWidth=2;strokeColor=#0080F0;shadow=0;dashed=0;shape=mxgraph.ios7.icons.locked;" vertex="1" parent="bZMVQMll3qHNsxTQ0Wbx-106">
          <mxGeometry x="7" y="6" width="15" height="20" as="geometry" />
        </mxCell>
        <mxCell id="bZMVQMll3qHNsxTQ0Wbx-190" value="" style="group" vertex="1" connectable="0" parent="1">
          <mxGeometry x="350" y="930" width="80" height="110" as="geometry" />
        </mxCell>
        <mxCell id="bZMVQMll3qHNsxTQ0Wbx-191" value="Encrypted&lt;div&gt;file&lt;/div&gt;" style="shape=note;whiteSpace=wrap;html=1;backgroundOutline=1;darkOpacity=0.05;fillColor=#a20025;fontColor=#ffffff;strokeColor=#6F0000;" vertex="1" parent="bZMVQMll3qHNsxTQ0Wbx-190">
          <mxGeometry width="80" height="110" as="geometry" />
        </mxCell>
        <mxCell id="bZMVQMll3qHNsxTQ0Wbx-192" value="" style="html=1;verticalLabelPosition=bottom;align=center;labelBackgroundColor=#ffffff;verticalAlign=top;strokeWidth=2;strokeColor=#0080F0;shadow=0;dashed=0;shape=mxgraph.ios7.icons.locked;" vertex="1" parent="bZMVQMll3qHNsxTQ0Wbx-190">
          <mxGeometry x="7" y="6" width="15" height="20" as="geometry" />
        </mxCell>
        <mxCell id="bZMVQMll3qHNsxTQ0Wbx-218" style="edgeStyle=orthogonalEdgeStyle;rounded=0;orthogonalLoop=1;jettySize=auto;html=1;exitX=0.5;exitY=1;exitDx=0;exitDy=0;entryX=0.5;entryY=0;entryDx=0;entryDy=0;" edge="1" parent="1" source="bZMVQMll3qHNsxTQ0Wbx-196" target="bZMVQMll3qHNsxTQ0Wbx-215">
          <mxGeometry relative="1" as="geometry" />
        </mxCell>
        <mxCell id="bZMVQMll3qHNsxTQ0Wbx-196" value="Decrypt&amp;nbsp;&lt;div&gt;with RSA&lt;/div&gt;" style="shape=parallelogram;perimeter=parallelogramPerimeter;whiteSpace=wrap;html=1;fixedSize=1;fillColor=#6a00ff;fontColor=#ffffff;strokeColor=#3700CC;" vertex="1" parent="1">
          <mxGeometry x="540" y="1100" width="120" height="40" as="geometry" />
        </mxCell>
        <mxCell id="bZMVQMll3qHNsxTQ0Wbx-197" value="" style="group" vertex="1" connectable="0" parent="1">
          <mxGeometry x="350" y="1080" width="160" height="80" as="geometry" />
        </mxCell>
        <mxCell id="bZMVQMll3qHNsxTQ0Wbx-198" value="&lt;div&gt;&lt;span style=&quot;background-color: initial;&quot;&gt;RSA Private key&lt;/span&gt;&lt;/div&gt;" style="rounded=0;whiteSpace=wrap;html=1;fillColor=#a20025;fontColor=#ffffff;strokeColor=#6F0000;" vertex="1" parent="bZMVQMll3qHNsxTQ0Wbx-197">
          <mxGeometry width="160" height="80" as="geometry" />
        </mxCell>
        <mxCell id="bZMVQMll3qHNsxTQ0Wbx-199" value="" style="image;sketch=0;aspect=fixed;html=1;points=[];align=center;fontSize=12;image=img/lib/mscae/Key.svg;" vertex="1" parent="bZMVQMll3qHNsxTQ0Wbx-197">
          <mxGeometry x="5" y="5" width="18.6" height="30" as="geometry" />
        </mxCell>
        <mxCell id="bZMVQMll3qHNsxTQ0Wbx-200" value="" style="group" vertex="1" connectable="0" parent="1">
          <mxGeometry x="510" y="940" width="360" height="120" as="geometry" />
        </mxCell>
        <mxCell id="bZMVQMll3qHNsxTQ0Wbx-201" value="Concatenated ecrypted file content and key data&lt;div&gt;&lt;br&gt;&lt;/div&gt;&lt;div&gt;&lt;br&gt;&lt;/div&gt;&lt;div&gt;&lt;br&gt;&lt;/div&gt;&lt;div&gt;&lt;br&gt;&lt;/div&gt;&lt;div&gt;&lt;br&gt;&lt;/div&gt;&lt;div&gt;&lt;br&gt;&lt;/div&gt;" style="rounded=0;whiteSpace=wrap;html=1;fillColor=#a20025;fontColor=#ffffff;strokeColor=#6F0000;" vertex="1" parent="bZMVQMll3qHNsxTQ0Wbx-200">
          <mxGeometry width="360" height="120" as="geometry" />
        </mxCell>
        <mxCell id="bZMVQMll3qHNsxTQ0Wbx-202" value="" style="html=1;verticalLabelPosition=bottom;align=center;labelBackgroundColor=#ffffff;verticalAlign=top;strokeWidth=2;strokeColor=#0080F0;shadow=0;dashed=0;shape=mxgraph.ios7.icons.locked;" vertex="1" parent="bZMVQMll3qHNsxTQ0Wbx-200">
          <mxGeometry x="7" y="4" width="15" height="20" as="geometry" />
        </mxCell>
        <mxCell id="bZMVQMll3qHNsxTQ0Wbx-203" value="" style="group" vertex="1" connectable="0" parent="bZMVQMll3qHNsxTQ0Wbx-200">
          <mxGeometry x="190" y="30" width="160" height="80" as="geometry" />
        </mxCell>
        <mxCell id="bZMVQMll3qHNsxTQ0Wbx-204" value="Encrypted file content&lt;div&gt;with AES Cipher&lt;/div&gt;" style="rounded=0;whiteSpace=wrap;html=1;fillColor=#a20025;fontColor=#ffffff;strokeColor=#6F0000;" vertex="1" parent="bZMVQMll3qHNsxTQ0Wbx-203">
          <mxGeometry width="160" height="80" as="geometry" />
        </mxCell>
        <mxCell id="bZMVQMll3qHNsxTQ0Wbx-205" value="" style="html=1;verticalLabelPosition=bottom;align=center;labelBackgroundColor=#ffffff;verticalAlign=top;strokeWidth=2;strokeColor=#0080F0;shadow=0;dashed=0;shape=mxgraph.ios7.icons.locked;" vertex="1" parent="bZMVQMll3qHNsxTQ0Wbx-203">
          <mxGeometry x="4" y="3" width="15" height="20" as="geometry" />
        </mxCell>
        <mxCell id="bZMVQMll3qHNsxTQ0Wbx-206" value="" style="group" vertex="1" connectable="0" parent="bZMVQMll3qHNsxTQ0Wbx-200">
          <mxGeometry x="10" y="30" width="160" height="80" as="geometry" />
        </mxCell>
        <mxCell id="bZMVQMll3qHNsxTQ0Wbx-207" value="Encrypted IV and Salt&lt;div&gt;with RSA public key&lt;/div&gt;" style="rounded=0;whiteSpace=wrap;html=1;fillColor=#a20025;fontColor=#ffffff;strokeColor=#6F0000;" vertex="1" parent="bZMVQMll3qHNsxTQ0Wbx-206">
          <mxGeometry width="160" height="80" as="geometry" />
        </mxCell>
        <mxCell id="bZMVQMll3qHNsxTQ0Wbx-208" value="" style="html=1;verticalLabelPosition=bottom;align=center;labelBackgroundColor=#ffffff;verticalAlign=top;strokeWidth=2;strokeColor=#0080F0;shadow=0;dashed=0;shape=mxgraph.ios7.icons.locked;" vertex="1" parent="bZMVQMll3qHNsxTQ0Wbx-206">
          <mxGeometry x="4" y="3" width="15" height="20" as="geometry" />
        </mxCell>
        <mxCell id="bZMVQMll3qHNsxTQ0Wbx-210" style="edgeStyle=orthogonalEdgeStyle;rounded=0;orthogonalLoop=1;jettySize=auto;html=1;exitX=0;exitY=0;exitDx=80;exitDy=70;exitPerimeter=0;entryX=0;entryY=0.5;entryDx=0;entryDy=0;" edge="1" parent="1" source="bZMVQMll3qHNsxTQ0Wbx-191" target="bZMVQMll3qHNsxTQ0Wbx-201">
          <mxGeometry relative="1" as="geometry" />
        </mxCell>
        <mxCell id="bZMVQMll3qHNsxTQ0Wbx-211" value="&amp;nbsp;Read&amp;nbsp;" style="edgeLabel;html=1;align=center;verticalAlign=middle;resizable=0;points=[];" vertex="1" connectable="0" parent="bZMVQMll3qHNsxTQ0Wbx-210">
          <mxGeometry x="0.0595" y="-6" relative="1" as="geometry">
            <mxPoint x="-2" y="-6" as="offset" />
          </mxGeometry>
        </mxCell>
        <mxCell id="bZMVQMll3qHNsxTQ0Wbx-212" style="edgeStyle=orthogonalEdgeStyle;rounded=0;orthogonalLoop=1;jettySize=auto;html=1;exitX=0.5;exitY=1;exitDx=0;exitDy=0;entryX=0.5;entryY=0;entryDx=0;entryDy=0;" edge="1" parent="1" source="bZMVQMll3qHNsxTQ0Wbx-207" target="bZMVQMll3qHNsxTQ0Wbx-196">
          <mxGeometry relative="1" as="geometry" />
        </mxCell>
        <mxCell id="bZMVQMll3qHNsxTQ0Wbx-213" style="edgeStyle=orthogonalEdgeStyle;rounded=0;orthogonalLoop=1;jettySize=auto;html=1;exitX=1;exitY=0.5;exitDx=0;exitDy=0;entryX=0;entryY=0.5;entryDx=0;entryDy=0;" edge="1" parent="1" source="bZMVQMll3qHNsxTQ0Wbx-198" target="bZMVQMll3qHNsxTQ0Wbx-196">
          <mxGeometry relative="1" as="geometry" />
        </mxCell>
        <mxCell id="bZMVQMll3qHNsxTQ0Wbx-253" style="edgeStyle=orthogonalEdgeStyle;rounded=0;orthogonalLoop=1;jettySize=auto;html=1;exitX=0.5;exitY=1;exitDx=0;exitDy=0;entryX=0.5;entryY=0;entryDx=0;entryDy=0;" edge="1" parent="1" source="bZMVQMll3qHNsxTQ0Wbx-219" target="bZMVQMll3qHNsxTQ0Wbx-241">
          <mxGeometry relative="1" as="geometry" />
        </mxCell>
        <mxCell id="bZMVQMll3qHNsxTQ0Wbx-219" value="IV" style="rounded=0;whiteSpace=wrap;html=1;fillColor=#a20025;fontColor=#ffffff;strokeColor=#6F0000;" vertex="1" parent="1">
          <mxGeometry x="510" y="1350" width="80" height="40" as="geometry" />
        </mxCell>
        <mxCell id="bZMVQMll3qHNsxTQ0Wbx-235" style="edgeStyle=orthogonalEdgeStyle;rounded=0;orthogonalLoop=1;jettySize=auto;html=1;exitX=0.5;exitY=1;exitDx=0;exitDy=0;entryX=0.25;entryY=0;entryDx=0;entryDy=0;" edge="1" parent="1" source="bZMVQMll3qHNsxTQ0Wbx-220" target="bZMVQMll3qHNsxTQ0Wbx-226">
          <mxGeometry relative="1" as="geometry" />
        </mxCell>
        <mxCell id="bZMVQMll3qHNsxTQ0Wbx-220" value="Salt" style="rounded=0;whiteSpace=wrap;html=1;fillColor=#a20025;fontColor=#ffffff;strokeColor=#6F0000;" vertex="1" parent="1">
          <mxGeometry x="610" y="1350" width="80" height="40" as="geometry" />
        </mxCell>
        <mxCell id="bZMVQMll3qHNsxTQ0Wbx-221" style="edgeStyle=orthogonalEdgeStyle;rounded=0;orthogonalLoop=1;jettySize=auto;html=1;exitX=0.5;exitY=1;exitDx=0;exitDy=0;entryX=0.5;entryY=0;entryDx=0;entryDy=0;" edge="1" parent="1" source="bZMVQMll3qHNsxTQ0Wbx-216" target="bZMVQMll3qHNsxTQ0Wbx-219">
          <mxGeometry relative="1" as="geometry">
            <mxPoint x="550" y="1300" as="sourcePoint" />
          </mxGeometry>
        </mxCell>
        <mxCell id="bZMVQMll3qHNsxTQ0Wbx-223" value="16 bytes" style="edgeLabel;html=1;align=center;verticalAlign=middle;resizable=0;points=[];" vertex="1" connectable="0" parent="bZMVQMll3qHNsxTQ0Wbx-221">
          <mxGeometry x="0.0432" relative="1" as="geometry">
            <mxPoint as="offset" />
          </mxGeometry>
        </mxCell>
        <mxCell id="bZMVQMll3qHNsxTQ0Wbx-222" style="edgeStyle=orthogonalEdgeStyle;rounded=0;orthogonalLoop=1;jettySize=auto;html=1;exitX=0.5;exitY=1;exitDx=0;exitDy=0;entryX=0.5;entryY=0;entryDx=0;entryDy=0;" edge="1" parent="1" source="bZMVQMll3qHNsxTQ0Wbx-217" target="bZMVQMll3qHNsxTQ0Wbx-220">
          <mxGeometry relative="1" as="geometry">
            <mxPoint x="650" y="1300" as="sourcePoint" />
          </mxGeometry>
        </mxCell>
        <mxCell id="bZMVQMll3qHNsxTQ0Wbx-224" value="32 bytes" style="edgeLabel;html=1;align=center;verticalAlign=middle;resizable=0;points=[];" vertex="1" connectable="0" parent="bZMVQMll3qHNsxTQ0Wbx-222">
          <mxGeometry x="-0.0865" y="2" relative="1" as="geometry">
            <mxPoint x="-2" y="4" as="offset" />
          </mxGeometry>
        </mxCell>
        <mxCell id="bZMVQMll3qHNsxTQ0Wbx-225" value="" style="group" vertex="1" connectable="0" parent="1">
          <mxGeometry x="670" y="1430" width="160" height="80" as="geometry" />
        </mxCell>
        <mxCell id="bZMVQMll3qHNsxTQ0Wbx-226" value="&lt;div&gt;&lt;span style=&quot;background-color: initial;&quot;&gt;AES Key&lt;/span&gt;&lt;br&gt;&lt;/div&gt;" style="rounded=0;whiteSpace=wrap;html=1;fillColor=#a20025;fontColor=#ffffff;strokeColor=#6F0000;" vertex="1" parent="bZMVQMll3qHNsxTQ0Wbx-225">
          <mxGeometry width="160" height="80" as="geometry" />
        </mxCell>
        <mxCell id="bZMVQMll3qHNsxTQ0Wbx-227" value="" style="image;sketch=0;aspect=fixed;html=1;points=[];align=center;fontSize=12;image=img/lib/mscae/Key.svg;" vertex="1" parent="bZMVQMll3qHNsxTQ0Wbx-225">
          <mxGeometry x="5" y="5" width="18.6" height="30" as="geometry" />
        </mxCell>
        <mxCell id="bZMVQMll3qHNsxTQ0Wbx-234" style="edgeStyle=orthogonalEdgeStyle;rounded=0;orthogonalLoop=1;jettySize=auto;html=1;exitX=0.5;exitY=1;exitDx=0;exitDy=0;entryX=0.5;entryY=0;entryDx=0;entryDy=0;" edge="1" parent="1" source="bZMVQMll3qHNsxTQ0Wbx-228" target="bZMVQMll3qHNsxTQ0Wbx-226">
          <mxGeometry relative="1" as="geometry" />
        </mxCell>
        <mxCell id="bZMVQMll3qHNsxTQ0Wbx-228" value="Password" style="rounded=0;whiteSpace=wrap;html=1;fillColor=#a20025;fontColor=#ffffff;strokeColor=#6F0000;" vertex="1" parent="1">
          <mxGeometry x="710" y="1350" width="80" height="40" as="geometry" />
        </mxCell>
        <mxCell id="bZMVQMll3qHNsxTQ0Wbx-229" style="edgeStyle=orthogonalEdgeStyle;rounded=0;orthogonalLoop=1;jettySize=auto;html=1;exitX=0.5;exitY=1;exitDx=0;exitDy=0;entryX=0.5;entryY=0;entryDx=0;entryDy=0;" edge="1" parent="1" source="bZMVQMll3qHNsxTQ0Wbx-230" target="bZMVQMll3qHNsxTQ0Wbx-228">
          <mxGeometry relative="1" as="geometry" />
        </mxCell>
        <mxCell id="bZMVQMll3qHNsxTQ0Wbx-230" value="Get from&lt;div&gt;user&lt;/div&gt;" style="shape=parallelogram;perimeter=parallelogramPerimeter;whiteSpace=wrap;html=1;fixedSize=1;fillColor=#1ba1e2;fontColor=#ffffff;strokeColor=#006EAF;" vertex="1" parent="1">
          <mxGeometry x="690" y="1290" width="120" height="40" as="geometry" />
        </mxCell>
        <mxCell id="bZMVQMll3qHNsxTQ0Wbx-236" style="edgeStyle=orthogonalEdgeStyle;rounded=0;orthogonalLoop=1;jettySize=auto;html=1;exitX=0.5;exitY=1;exitDx=0;exitDy=0;entryX=0.75;entryY=0;entryDx=0;entryDy=0;" edge="1" parent="1" source="bZMVQMll3qHNsxTQ0Wbx-231" target="bZMVQMll3qHNsxTQ0Wbx-226">
          <mxGeometry relative="1" as="geometry" />
        </mxCell>
        <mxCell id="bZMVQMll3qHNsxTQ0Wbx-231" value="Key length" style="rounded=0;whiteSpace=wrap;html=1;fillColor=#60a917;fontColor=#ffffff;strokeColor=#2D7600;" vertex="1" parent="1">
          <mxGeometry x="810" y="1350" width="80" height="40" as="geometry" />
        </mxCell>
        <mxCell id="bZMVQMll3qHNsxTQ0Wbx-232" style="edgeStyle=orthogonalEdgeStyle;rounded=0;orthogonalLoop=1;jettySize=auto;html=1;exitX=0.5;exitY=1;exitDx=0;exitDy=0;entryX=0.5;entryY=0;entryDx=0;entryDy=0;" edge="1" parent="1" target="bZMVQMll3qHNsxTQ0Wbx-231">
          <mxGeometry relative="1" as="geometry">
            <mxPoint x="850" y="1290" as="sourcePoint" />
          </mxGeometry>
        </mxCell>
        <mxCell id="bZMVQMll3qHNsxTQ0Wbx-233" value="Static&lt;div&gt;32 bytes&lt;/div&gt;" style="rounded=0;whiteSpace=wrap;html=1;fillColor=#008a00;fontColor=#ffffff;strokeColor=#005700;" vertex="1" parent="1">
          <mxGeometry x="810" y="1290" width="80" height="40" as="geometry" />
        </mxCell>
        <mxCell id="bZMVQMll3qHNsxTQ0Wbx-255" style="edgeStyle=orthogonalEdgeStyle;rounded=0;orthogonalLoop=1;jettySize=auto;html=1;exitX=0.5;exitY=1;exitDx=0;exitDy=0;entryX=0.25;entryY=0;entryDx=0;entryDy=0;" edge="1" parent="1" source="bZMVQMll3qHNsxTQ0Wbx-238" target="bZMVQMll3qHNsxTQ0Wbx-241">
          <mxGeometry relative="1" as="geometry" />
        </mxCell>
        <mxCell id="bZMVQMll3qHNsxTQ0Wbx-238" value="Algorithm" style="rounded=0;whiteSpace=wrap;html=1;fillColor=#60a917;fontColor=#ffffff;strokeColor=#2D7600;" vertex="1" parent="1">
          <mxGeometry x="400" y="1350" width="80" height="40" as="geometry" />
        </mxCell>
        <mxCell id="bZMVQMll3qHNsxTQ0Wbx-239" style="edgeStyle=orthogonalEdgeStyle;rounded=0;orthogonalLoop=1;jettySize=auto;html=1;exitX=0.5;exitY=1;exitDx=0;exitDy=0;entryX=0.5;entryY=0;entryDx=0;entryDy=0;" edge="1" parent="1" source="bZMVQMll3qHNsxTQ0Wbx-240" target="bZMVQMll3qHNsxTQ0Wbx-238">
          <mxGeometry relative="1" as="geometry" />
        </mxCell>
        <mxCell id="bZMVQMll3qHNsxTQ0Wbx-240" value="Static&lt;div&gt;32 bytes&lt;/div&gt;" style="rounded=0;whiteSpace=wrap;html=1;fillColor=#008a00;fontColor=#ffffff;strokeColor=#005700;" vertex="1" parent="1">
          <mxGeometry x="400" y="1290" width="80" height="40" as="geometry" />
        </mxCell>
        <mxCell id="bZMVQMll3qHNsxTQ0Wbx-256" style="edgeStyle=orthogonalEdgeStyle;rounded=0;orthogonalLoop=1;jettySize=auto;html=1;exitX=0.5;exitY=1;exitDx=0;exitDy=0;entryX=0;entryY=0.5;entryDx=0;entryDy=0;" edge="1" parent="1" source="bZMVQMll3qHNsxTQ0Wbx-241" target="bZMVQMll3qHNsxTQ0Wbx-245">
          <mxGeometry relative="1" as="geometry">
            <Array as="points">
              <mxPoint x="550" y="1530" />
              <mxPoint x="870" y="1530" />
            </Array>
          </mxGeometry>
        </mxCell>
        <mxCell id="bZMVQMll3qHNsxTQ0Wbx-241" value="AES&amp;nbsp;&lt;span style=&quot;background-color: initial;&quot;&gt;Cipher&lt;/span&gt;" style="shape=process;whiteSpace=wrap;html=1;backgroundOutline=1;fillColor=#d80073;fontColor=#ffffff;strokeColor=#A50040;" vertex="1" parent="1">
          <mxGeometry x="470" y="1430" width="160" height="80" as="geometry" />
        </mxCell>
        <mxCell id="bZMVQMll3qHNsxTQ0Wbx-258" style="edgeStyle=orthogonalEdgeStyle;rounded=0;orthogonalLoop=1;jettySize=auto;html=1;exitX=1;exitY=0.5;exitDx=0;exitDy=0;entryX=0;entryY=0.5;entryDx=0;entryDy=0;" edge="1" parent="1" source="bZMVQMll3qHNsxTQ0Wbx-245" target="bZMVQMll3qHNsxTQ0Wbx-248">
          <mxGeometry relative="1" as="geometry" />
        </mxCell>
        <mxCell id="bZMVQMll3qHNsxTQ0Wbx-245" value="Decrypt&amp;nbsp;&lt;div&gt;with AES Cipher&lt;/div&gt;" style="shape=parallelogram;perimeter=parallelogramPerimeter;whiteSpace=wrap;html=1;fixedSize=1;fillColor=#6a00ff;fontColor=#ffffff;strokeColor=#3700CC;" vertex="1" parent="1">
          <mxGeometry x="860" y="1510" width="120" height="40" as="geometry" />
        </mxCell>
        <mxCell id="bZMVQMll3qHNsxTQ0Wbx-248" value="Decrypted file content" style="rounded=0;whiteSpace=wrap;html=1;fillColor=#60a917;fontColor=#ffffff;strokeColor=#2D7600;" vertex="1" parent="1">
          <mxGeometry x="1000" y="1490" width="160" height="80" as="geometry" />
        </mxCell>
        <mxCell id="bZMVQMll3qHNsxTQ0Wbx-250" value="Decrypted&lt;div&gt;file&lt;/div&gt;" style="shape=note;whiteSpace=wrap;html=1;backgroundOutline=1;darkOpacity=0.05;fillColor=#60a917;fontColor=#ffffff;strokeColor=#2D7600;" vertex="1" parent="1">
          <mxGeometry x="1220" y="1475" width="80" height="110" as="geometry" />
        </mxCell>
        <mxCell id="bZMVQMll3qHNsxTQ0Wbx-254" style="edgeStyle=orthogonalEdgeStyle;rounded=0;orthogonalLoop=1;jettySize=auto;html=1;exitX=0;exitY=0.5;exitDx=0;exitDy=0;entryX=1;entryY=0.5;entryDx=0;entryDy=0;" edge="1" parent="1" source="bZMVQMll3qHNsxTQ0Wbx-226" target="bZMVQMll3qHNsxTQ0Wbx-241">
          <mxGeometry relative="1" as="geometry" />
        </mxCell>
        <mxCell id="bZMVQMll3qHNsxTQ0Wbx-257" style="edgeStyle=orthogonalEdgeStyle;rounded=0;orthogonalLoop=1;jettySize=auto;html=1;exitX=1;exitY=0.5;exitDx=0;exitDy=0;entryX=0.5;entryY=0;entryDx=0;entryDy=0;" edge="1" parent="1" source="bZMVQMll3qHNsxTQ0Wbx-201" target="bZMVQMll3qHNsxTQ0Wbx-245">
          <mxGeometry relative="1" as="geometry" />
        </mxCell>
        <mxCell id="bZMVQMll3qHNsxTQ0Wbx-259" style="edgeStyle=orthogonalEdgeStyle;rounded=0;orthogonalLoop=1;jettySize=auto;html=1;exitX=1;exitY=0.5;exitDx=0;exitDy=0;entryX=0;entryY=0.5;entryDx=0;entryDy=0;entryPerimeter=0;" edge="1" parent="1" source="bZMVQMll3qHNsxTQ0Wbx-248" target="bZMVQMll3qHNsxTQ0Wbx-250">
          <mxGeometry relative="1" as="geometry" />
        </mxCell>
        <mxCell id="bZMVQMll3qHNsxTQ0Wbx-260" value="&amp;nbsp;Write&amp;nbsp;" style="edgeLabel;html=1;align=center;verticalAlign=middle;resizable=0;points=[];" vertex="1" connectable="0" parent="bZMVQMll3qHNsxTQ0Wbx-259">
          <mxGeometry x="-0.0222" y="2" relative="1" as="geometry">
            <mxPoint x="1" y="2" as="offset" />
          </mxGeometry>
        </mxCell>
        <mxCell id="bZMVQMll3qHNsxTQ0Wbx-64" value="Concatenated&lt;div&gt;&lt;br&gt;&lt;/div&gt;&lt;div&gt;&lt;br&gt;&lt;/div&gt;&lt;div&gt;&lt;br&gt;&lt;/div&gt;" style="rounded=0;whiteSpace=wrap;html=1;fillColor=#a20025;fontColor=#ffffff;strokeColor=#6F0000;" vertex="1" parent="1">
          <mxGeometry x="800" y="550" width="400" height="80" as="geometry" />
        </mxCell>
        <mxCell id="bZMVQMll3qHNsxTQ0Wbx-66" value="IV" style="rounded=0;whiteSpace=wrap;html=1;fillColor=#a20025;fontColor=#ffffff;strokeColor=#6F0000;" vertex="1" parent="1">
          <mxGeometry x="810" y="580" width="80" height="40" as="geometry" />
        </mxCell>
        <mxCell id="bZMVQMll3qHNsxTQ0Wbx-67" value="Salt" style="rounded=0;whiteSpace=wrap;html=1;fillColor=#a20025;fontColor=#ffffff;strokeColor=#6F0000;" vertex="1" parent="1">
          <mxGeometry x="910" y="580" width="80" height="40" as="geometry" />
        </mxCell>
        <mxCell id="bZMVQMll3qHNsxTQ0Wbx-263" style="edgeStyle=orthogonalEdgeStyle;rounded=0;orthogonalLoop=1;jettySize=auto;html=1;exitX=1;exitY=0.5;exitDx=0;exitDy=0;entryX=0;entryY=0.5;entryDx=0;entryDy=0;" edge="1" parent="1" source="bZMVQMll3qHNsxTQ0Wbx-261" target="bZMVQMll3qHNsxTQ0Wbx-262">
          <mxGeometry relative="1" as="geometry" />
        </mxCell>
        <mxCell id="bZMVQMll3qHNsxTQ0Wbx-261" value="Filename&lt;div&gt;length&lt;/div&gt;" style="rounded=0;whiteSpace=wrap;html=1;fillColor=#60a917;fontColor=#ffffff;strokeColor=#2D7600;" vertex="1" parent="1">
          <mxGeometry x="560" y="800" width="80" height="40" as="geometry" />
        </mxCell>
        <mxCell id="bZMVQMll3qHNsxTQ0Wbx-268" style="edgeStyle=orthogonalEdgeStyle;rounded=0;orthogonalLoop=1;jettySize=auto;html=1;exitX=1;exitY=0.5;exitDx=0;exitDy=0;entryX=0.5;entryY=1;entryDx=0;entryDy=0;" edge="1" parent="1" source="bZMVQMll3qHNsxTQ0Wbx-262" target="bZMVQMll3qHNsxTQ0Wbx-266">
          <mxGeometry relative="1" as="geometry" />
        </mxCell>
        <mxCell id="bZMVQMll3qHNsxTQ0Wbx-262" value="Filename" style="rounded=0;whiteSpace=wrap;html=1;fillColor=#60a917;fontColor=#ffffff;strokeColor=#2D7600;" vertex="1" parent="1">
          <mxGeometry x="660" y="800" width="80" height="40" as="geometry" />
        </mxCell>
        <mxCell id="bZMVQMll3qHNsxTQ0Wbx-265" style="edgeStyle=orthogonalEdgeStyle;rounded=0;orthogonalLoop=1;jettySize=auto;html=1;exitX=1;exitY=0.5;exitDx=0;exitDy=0;entryX=0;entryY=0.5;entryDx=0;entryDy=0;" edge="1" parent="1" source="bZMVQMll3qHNsxTQ0Wbx-266" target="bZMVQMll3qHNsxTQ0Wbx-267">
          <mxGeometry relative="1" as="geometry" />
        </mxCell>
        <mxCell id="bZMVQMll3qHNsxTQ0Wbx-266" value="Filename&lt;div&gt;length&lt;/div&gt;" style="rounded=0;whiteSpace=wrap;html=1;fillColor=#60a917;fontColor=#ffffff;strokeColor=#2D7600;" vertex="1" parent="1">
          <mxGeometry x="1010" y="580" width="80" height="40" as="geometry" />
        </mxCell>
        <mxCell id="bZMVQMll3qHNsxTQ0Wbx-267" value="Filename" style="rounded=0;whiteSpace=wrap;html=1;fillColor=#60a917;fontColor=#ffffff;strokeColor=#2D7600;" vertex="1" parent="1">
          <mxGeometry x="1110" y="580" width="80" height="40" as="geometry" />
        </mxCell>
        <mxCell id="bZMVQMll3qHNsxTQ0Wbx-215" value="Concatenated&lt;div&gt;&lt;br&gt;&lt;/div&gt;&lt;div&gt;&lt;br&gt;&lt;/div&gt;&lt;div&gt;&lt;br&gt;&lt;/div&gt;" style="rounded=0;whiteSpace=wrap;html=1;fillColor=#a20025;fontColor=#ffffff;strokeColor=#6F0000;" vertex="1" parent="1">
          <mxGeometry x="500" y="1180" width="400" height="80" as="geometry" />
        </mxCell>
        <mxCell id="bZMVQMll3qHNsxTQ0Wbx-216" value="IV" style="rounded=0;whiteSpace=wrap;html=1;fillColor=#a20025;fontColor=#ffffff;strokeColor=#6F0000;" vertex="1" parent="1">
          <mxGeometry x="510" y="1210" width="80" height="40" as="geometry" />
        </mxCell>
        <mxCell id="bZMVQMll3qHNsxTQ0Wbx-217" value="Salt" style="rounded=0;whiteSpace=wrap;html=1;fillColor=#a20025;fontColor=#ffffff;strokeColor=#6F0000;" vertex="1" parent="1">
          <mxGeometry x="610" y="1210" width="80" height="40" as="geometry" />
        </mxCell>
        <mxCell id="bZMVQMll3qHNsxTQ0Wbx-269" style="edgeStyle=orthogonalEdgeStyle;rounded=0;orthogonalLoop=1;jettySize=auto;html=1;exitX=1;exitY=0.5;exitDx=0;exitDy=0;entryX=0;entryY=0.5;entryDx=0;entryDy=0;" edge="1" parent="1" source="bZMVQMll3qHNsxTQ0Wbx-270" target="bZMVQMll3qHNsxTQ0Wbx-271">
          <mxGeometry relative="1" as="geometry" />
        </mxCell>
        <mxCell id="bZMVQMll3qHNsxTQ0Wbx-270" value="Filename&lt;div&gt;length&lt;/div&gt;" style="rounded=0;whiteSpace=wrap;html=1;fillColor=#60a917;fontColor=#ffffff;strokeColor=#2D7600;" vertex="1" parent="1">
          <mxGeometry x="710" y="1210" width="80" height="40" as="geometry" />
        </mxCell>
        <mxCell id="bZMVQMll3qHNsxTQ0Wbx-271" value="Filename" style="rounded=0;whiteSpace=wrap;html=1;fillColor=#60a917;fontColor=#ffffff;strokeColor=#2D7600;" vertex="1" parent="1">
          <mxGeometry x="810" y="1210" width="80" height="40" as="geometry" />
        </mxCell>
        <mxCell id="bZMVQMll3qHNsxTQ0Wbx-272" style="edgeStyle=orthogonalEdgeStyle;rounded=0;orthogonalLoop=1;jettySize=auto;html=1;exitX=1;exitY=0.5;exitDx=0;exitDy=0;entryX=0.5;entryY=0;entryDx=0;entryDy=0;entryPerimeter=0;" edge="1" parent="1" source="bZMVQMll3qHNsxTQ0Wbx-271" target="bZMVQMll3qHNsxTQ0Wbx-250">
          <mxGeometry relative="1" as="geometry" />
        </mxCell>
        <mxCell id="bZMVQMll3qHNsxTQ0Wbx-273" value="Filename" style="edgeLabel;html=1;align=center;verticalAlign=middle;resizable=0;points=[];" vertex="1" connectable="0" parent="bZMVQMll3qHNsxTQ0Wbx-272">
          <mxGeometry x="0.7685" y="2" relative="1" as="geometry">
            <mxPoint x="-2" y="26" as="offset" />
          </mxGeometry>
        </mxCell>
      </root>
    </mxGraphModel>
  </diagram>
</mxfile>
